# xmcd CD database file
#
# Track frame offsets:
#	150
#	4350
#	16351
#	27602
#	37953
#	47854
#	57680
#	68256
#	78907
#	88958
#	100209
#	111085
#	121661
#	133887
#	145513
#	156989
#	167790
#
# Disc length: 2303 seconds
#
# Revision: 0
# Processed by: cddbd v1.5.2PL0 Copyright (c) Steve Scherf et al.
# Submitted via: CDex 1.70beta2
#
DISCID=e408fd11
DTITLE=Ranch House Favorites - Sing The Hits Of Hank Thompson
DYEAR=2003
DGENRE=Country
TTITLE0=Oklahoma Hills
TTITLE1=The Wild Side Of Life
TTITLE2=Cryin' In The Deep Blue Sea
TTITLE3=Humpty Dumty Heart
TTITLE4=A Six Pack To Go
TTITLE5=Green Light
TTITLE6=Honky-Tonk Girl
TTITLE7=Smoky The Bar
TTITLE8=Whoa Sailor
TTITLE9=In The Jailhouse Now
TTITLE10=I Cast A Lonesome Shadow
TTITLE11=Drivin' Nails In My Coffin
TTITLE12=The Blackboard Of My Heart
TTITLE13=Hangover Tavern
TTITLE14=No Help Wanted
TTITLE15=Total Stranger
TTITLE16=Oklahoma Hills
EXTD=YEAR: 2003
EXTT0=
EXTT1=
EXTT2=
EXTT3=
EXTT4=
EXTT5=
EXTT6=
EXTT7=
EXTT8=
EXTT9=
EXTT10=
EXTT11=
EXTT12=
EXTT13=
EXTT14=
EXTT15=
EXTT16=
PLAYORDER=
